<svg height="512pt" viewBox="-46 0 512 512" width="512pt" xmlns="http://www.w3.org/2000/svg"><path d="m366.097656 252h-312.195312l-43.902344 55.4375v194.5625h400v-194.5625zm0 0" fill="#ffc15a"/><path d="m329.996094 168h-240.003906c-19.882813 0-35.996094 16.117188-35.996094 35.996094v48.003906h312v-48.003906c0-19.878906-16.117188-35.996094-36-35.996094zm0 0" fill="#ffcb7c"/><path d="m285 64v19.148438c0 10.519531 4.449219 20.542968 12.242188 27.601562 10.726562 9.710938 16.847656 23.503906 16.847656 37.972656v19.277344h-46.089844v27.667969c0 9.019531-7.3125 16.332031-16.332031 16.332031h-133.335938c-9.019531 0-16.332031-7.3125-16.332031-16.332031v-36.703125c0-15.628906 7.136719-30.40625 19.378906-40.121094l9.53125-7.566406c8.902344-7.0625 14.089844-17.800782 14.089844-29.164063v-18.113281zm0 0" fill="#ffddcf"/><path d="m127 10h176v54h-176zm0 0" fill="#ff6977"/><path d="m348 418h-276c0 24.300781 19.699219 44 44 44h188c24.300781 0 44-19.699219 44-44zm0 0" fill="#becfcf"/><path d="m210 302.355469c-61.566406 0-111.480469 49.910156-111.480469 111.476562v4.167969h222.960938v-4.167969c0-61.566406-49.914063-111.476562-111.480469-111.476562zm0 0" fill="#e5ecec"/><path d="m410 432c5.523438 0 10-4.476562 10-10v-114.5625c0-2.253906-.761719-4.441406-2.160156-6.207031l-41.84375-52.839844v-44.394531c0-25.363282-20.636719-45.996094-46-45.996094h-5.90625v-9.28125c0-17.257812-7.339844-33.796875-20.132813-45.378906-5.691406-5.152344-8.957031-12.511719-8.957031-20.191406v-9.148438h8c5.523438 0 10-4.476562 10-10v-54c0-5.523438-4.476562-10-10-10h-176c-5.523438 0-10 4.476562-10 10v54c0 5.523438 4.476562 10 10 10h8v8.113281c0 8.359375-3.757812 16.136719-10.304688 21.332031l-9.53125 7.566407c-14.46875 11.480469-22.851562 28.5625-23.136718 46.988281h-2.035156c-25.363282 0-45.996094 20.632812-45.996094 45.996094v44.40625l-41.835938 52.828125c-1.398437 1.765625-2.160156 3.953125-2.160156 6.207031v194.5625c0 5.523438 4.476562 10 10 10h400c5.523438 0 10-4.476562 10-10s-4.476562-10-10-10h-390v-181.082031l38.738281-48.917969h302.523438l38.738281 48.917969v111.082031c0 5.523438 4.476562 10 10 10zm-273-412h156v34h-156zm-25 138.960938c0-12.652344 5.683594-24.421876 15.59375-32.285157l9.535156-7.566406c11.355469-9.011719 17.871094-22.496094 17.871094-36.996094v-8.113281h120v9.148438c0 13.316406 5.660156 26.078124 15.53125 35.015624 8.617188 7.800782 13.558594 18.9375 13.558594 30.558594v9.277344h-36.089844c-5.523438 0-10 4.476562-10 10v27.667969c0 3.492187-2.839844 6.332031-6.332031 6.332031h-15.335938v-24.332031c0-5.523438-4.476562-10-10-10-5.519531 0-10 4.476562-10 10v24.332031h-22.78125v-24.332031c0-5.523438-4.476562-10-10-10-5.519531 0-10 4.476562-10 10v24.332031h-22.78125v-24.332031c0-5.523438-4.476562-10-10-10-5.519531 0-10 4.476562-10 10v24.332031h-12.4375c-3.492187 0-6.332031-2.839844-6.332031-6.332031zm243.996094 83.039062h-292v-38.003906c0-14.332032 11.660156-25.996094 25.996094-25.996094h2.007812v17.667969c0 2.742187.421875 5.386719 1.203125 7.875-2.808594 1.769531-4.683594 4.890625-4.683594 8.457031 0 5.523438 4.480469 10 10 10h222.960938c5.523437 0 10-4.476562 10-10s-4.476563-10-10-10h-44.253907c.503907-2.03125.773438-4.148438.773438-6.332031v-17.667969h51.996094c14.335937 0 26 11.664062 26 25.996094zm0 0"/><path d="m210 279.859375c-5.523438 0-10 4.476563-10 10v2.910156c-60.40625 4.945313-108.441406 54.273438-111.335938 115.230469h-16.664062c-5.523438 0-10 4.476562-10 10 0 29.777344 24.226562 54 54 54h188c29.773438 0 54-24.222656 54-54 0-5.523438-4.476562-10-10-10h-16.664062c-2.894532-60.957031-50.929688-110.285156-111.335938-115.230469v-2.910156c0-5.523437-4.476562-10-10-10zm94 172.140625h-188c-15.269531 0-28.21875-10.117188-32.5-24h253c-4.28125 13.882812-17.230469 24-32.5 24zm7.3125-44h-202.625c3.03125-53.253906 47.3125-95.644531 101.3125-95.644531s98.28125 42.390625 101.3125 95.644531zm0 0"/><path d="m410 452c-2.628906 0-5.210938 1.070312-7.070312 2.929688-1.859376 1.859374-2.929688 4.441406-2.929688 7.070312s1.070312 5.210938 2.929688 7.070312c1.859374 1.859376 4.441406 2.929688 7.070312 2.929688s5.210938-1.070312 7.070312-2.929688c1.859376-1.859374 2.929688-4.441406 2.929688-7.070312s-1.070312-5.210938-2.929688-7.070312c-1.859374-1.859376-4.441406-2.929688-7.070312-2.929688zm0 0"/></svg>