<?xml version="1.0" encoding="iso-8859-1"?>
<!-- Generator: Adobe Illustrator 16.0.0, SVG Export Plug-In . SVG Version: 6.00 Build 0)  -->
<!DOCTYPE svg PUBLIC "-//W3C//DTD SVG 1.1//EN" "http://www.w3.org/Graphics/SVG/1.1/DTD/svg11.dtd">
<svg version="1.1" id="Capa_1" xmlns="http://www.w3.org/2000/svg" xmlns:xlink="http://www.w3.org/1999/xlink" x="0px" y="0px"
	 width="35px" height="35px" viewBox="0 0 111.513 111.513" style="enable-background:new 0 0 111.513 111.513;"
	 xml:space="preserve">
<g>
	<g>
		<rect x="46.633" y="80.281" width="46.396" height="5.332"/>
		<path d="M111.513,59.984v-6.262H100.33v6.262h-3.687l-9.751-14.466H50.829L41.91,58.755l-4.684-9.652l0.019-0.01l-0.643-1.277
			l-1.414-2.915c-0.077-0.505-0.332-0.963-0.711-1.302l-1.741-3.453l-0.984,0.497l1.149,2.282l-3.809-1.04l-4.371-4.179
			c-0.577-2.347-2.319-4.348-4.792-5.131c-3.774-1.196-7.805,0.896-9,4.671L6.367,51.653c-0.321,1.015-0.398,2.047-0.275,3.039
			c-0.155,0.381-0.251,0.793-0.267,1.229l-0.321,9.358l-5.4,17.324c-0.354,1.149,0.218,2.41,1.353,2.877
			c1.202,0.494,2.578-0.08,3.072-1.283l7.114-17.309c0.068-0.172,0.122-0.365,0.146-0.56l0.032-0.271l0.616-5.116
			c0.039,0.004,0.075,0.01,0.113,0.014l4.109,8.04l-3.313,15.153c-0.254,1.176,0.427,2.383,1.598,2.75
			c1.239,0.388,2.562-0.304,2.949-1.543l5.004-15.988c0.18-0.577,0.17-1.221-0.074-1.824l-0.104-0.252l-3.734-9.23
			c0.451-0.615,0.812-1.312,1.054-2.078l2.027-6.402l4.122,5.256l0.175,0.224c0.53,0.672,1.396,1.047,2.305,0.908l1.827-0.281
			l1.83-0.252c0.605-0.078,1.212-0.149,1.791-0.204c0.287-0.027,0.572-0.049,0.817-0.063l0.228-0.013
			c0.154,0.06,0.312,0.107,0.483,0.131c1.143,0.16,2.191-0.604,2.42-1.719l3.072,6.333l-0.058,0.084h-7.83v3.369h-1.476v15.51
			h74.169v-15.51h-1.474v-3.369H111.513L111.513,59.984z M33.796,52.834c-0.02,0.143-0.022,0.285-0.017,0.423
			C33.771,53.119,33.772,52.979,33.796,52.834z M36.36,50.896c-0.24-0.072-0.373-0.097-0.51-0.125
			c-0.26-0.05-0.458-0.078-0.652-0.104c-0.383-0.05-0.728-0.083-1.069-0.112c-0.68-0.057-1.333-0.095-1.984-0.127l-1.942-0.078
			l-0.241-0.005l-2.23-3.133l5.219,0.196c0.679,0.026,1.321-0.274,1.75-0.783l0.857,1.771l1.314,2.711
			c-0.115-0.061-0.216-0.104-0.297-0.136C36.505,50.943,36.413,50.911,36.36,50.896z M52.269,48.222h33.188l7.016,10.409H45.253
			L52.269,48.222z M102.999,75.914H34.727v-9.616h68.272V75.914z"/>
		<rect x="31.775" y="80.736" width="10.066" height="12.033"/>
		<polygon points="56.069,67.186 36.426,67.186 36.426,75.027 50.173,75.027 		"/>
		<rect x="96.835" y="81.595" width="9.088" height="12.033"/>
		<polygon points="101.38,75.125 101.38,67.283 81.736,67.283 87.626,75.125 		"/>
		<circle cx="24.896" cy="25.705" r="7.82"/>
	</g>
</g>
<g>
</g>
<g>
</g>
<g>
</g>
<g>
</g>
<g>
</g>
<g>
</g>
<g>
</g>
<g>
</g>
<g>
</g>
<g>
</g>
<g>
</g>
<g>
</g>
<g>
</g>
<g>
</g>
<g>
</g>
</svg>
