<?xml version="1.0" encoding="iso-8859-1"?>
<!-- Generator: Adobe Illustrator 16.0.0, SVG Export Plug-In . SVG Version: 6.00 Build 0)  -->
<!DOCTYPE svg PUBLIC "-//W3C//DTD SVG 1.1//EN" "http://www.w3.org/Graphics/SVG/1.1/DTD/svg11.dtd">
<svg version="1.1" id="Capa_1" xmlns="http://www.w3.org/2000/svg" xmlns:xlink="http://www.w3.org/1999/xlink" x="0px" y="0px"
	 width="118.321px" height="118.32px" viewBox="0 0 118.321 118.32" style="enable-background:new 0 0 118.321 118.32;"
	 xml:space="preserve">
<g>
	<g>
		<path d="M67.341,63.2l-11.943,4.349l-7.098-8.011c-0.096-0.109-0.202-0.216-0.313-0.315c-0.07-0.062-0.144-0.118-0.217-0.175
			c-0.883-1.936-2.451-3.417-4.783-3.938c-4.858-1.088-9.678,1.972-10.764,6.83l-3.604,16.12c-0.109,0.49-0.166,0.942-0.193,1.373
			l-0.702,3.649h0.21c-0.02,0.132-0.04,0.265-0.05,0.397L26.81,98.062l-15.167-2.77c-1.646-0.303-3.293,0.674-3.788,2.315
			c-0.532,1.762,0.465,3.62,2.227,4.153l19.783,5.97c0.207,0.061,0.444,0.114,0.665,0.144c2.338,0.314,4.487-1.326,4.801-3.664
			l0.052-0.379l1.709-12.727c0.625,0.617,1.415,1.086,2.33,1.314l10.393,2.604l1.983,20.291c0.171,1.704,1.626,3.034,3.368,3.005
			c1.84-0.031,3.305-1.545,3.274-3.385l-0.39-23.566c-0.031-1.591-1.011-3.088-2.589-3.688l-0.401-0.152l-11.705-4.446h0.283
			c0.021-0.183,0.053-0.358,0.093-0.528l-0.622-0.074c0.504-1.002,0.881-2.182,1.174-3.492l3.141-9.878l4.821,4.321l0.227,0.205
			c0.843,0.754,2.083,0.984,3.18,0.489l11.689-5.276v29.658l34.353,11.213V23.504L67.341,12.292V63.2z M71.832,58.691
			c1.111,0,2.013,1.037,2.013,2.313c0,1.278-0.9,2.314-2.013,2.314c-1.11,0-2.012-1.036-2.012-2.314
			C69.82,59.728,70.721,58.691,71.832,58.691z"/>
		<polygon points="58.424,0 58.424,64.771 62.379,62.715 62.882,6.146 106.149,20.27 106.149,107.939 110.609,114.084 
			110.609,17.035 		"/>
		<circle cx="45.987" cy="45.046" r="10.302"/>
	</g>
</g>
<g>
</g>
<g>
</g>
<g>
</g>
<g>
</g>
<g>
</g>
<g>
</g>
<g>
</g>
<g>
</g>
<g>
</g>
<g>
</g>
<g>
</g>
<g>
</g>
<g>
</g>
<g>
</g>
<g>
</g>
</svg>
